#!OML:ASF E:\emotionWalksFemale\Project 1\Capture day 1\Session 1\Female1.ASF
:FULLY-SPECIFIED
:DEGREES
1452
root 9.08362 15.4712 -5.59457 181.686 -13.0832 -179.024
lowerback 9.11239 2.12642 -1.40229
upperback 4.05575 2.40297 -0.0324789
thorax -0.961388 1.05455 0.520498
lowerneck -0.0750197 11.547 7.39231
upperneck -6.1488 15.2539 -3.09841
head -1.10512 7.42664 -2.21572
rclavicle 5.76476e-015 2.18663e-015
rhumerus -29.5983 -5.6375 -82.56
rradius 36.5143
rwrist 17.3103
rhand -4.10588 -54.0318
rfingers 7.12502
rthumb 21.6523 -802.841
lclavicle 5.76476e-015 2.18663e-015
lhumerus -29.5934 15.906 79.4324
lradius 35.13
lwrist -13.9853
lhand -5.50673 -37.3857
lfingers 7.12502
lthumb 20.3065 -8.42731
rfemur -21.9351 12.0359 21.7258
rtibia 23.3247
rfoot -11.805 -27.4008
rtoes -13.3714
lfemur -2.54002 -14.7765 -23.5001
ltibia 32.5637
lfoot -21.5965 2.28174
ltoes -11.898
1453
root 9.10685 15.479 -5.65176 181.729 -13.2548 -179.093
lowerback 9.07558 2.12444 -1.40661
upperback 3.97949 2.40944 -0.0179411
thorax -1.02093 1.06221 0.536946
lowerneck 0.370939 11.5004 7.70304
upperneck -6.3442 15.226 -3.50286
head -1.18909 7.41626 -2.4307
rclavicle 1.53064e-014 -1.39149e-015
rhumerus -29.7907 -5.41884 -82.5755
rradius 36.6865
rwrist 16.9479
rhand -4.4575 -53.5795
rfingers 7.12502
rthumb 21.3146 -802.427
lclavicle 1.53064e-014 -1.39149e-015
lhumerus -29.9609 15.3473 79.4949
lradius 35.6495
lwrist -13.5719
lhand -5.52829 -37.6908
lfingers 7.12502
lthumb 20.2858 -8.73015
rfemur -21.7115 11.9126 21.8169
rtibia 23.2452
rfoot -11.6359 -27.6593
rtoes -14.6739
lfemur -2.64194 -14.5828 -23.4432
ltibia 33.0378
lfoot -21.3832 2.13794
ltoes -11.4499
1454
root 9.13475 15.4812 -5.70656 181.837 -13.4741 -179.129
lowerback 9.06847 2.07592 -1.47933
upperback 3.99069 2.33995 0.026812
thorax -1.00884 1.02634 0.631084
lowerneck 0.0764172 11.5297 7.75967
upperneck -6.27368 15.2326 -3.6657
head -1.09833 7.42128 -2.46407
rclavicle 1.92324e-014 -4.67144e-015
rhumerus -29.6413 -5.16956 -82.6239
rradius 36.8756
rwrist 16.6512
rhand -4.48082 -53.0459
rfingers 7.12502
rthumb 21.2922 -801.896
lclavicle 1.92324e-014 -4.67144e-015
lhumerus -29.8255 15.4966 79.5343
lradius 35.7459
lwrist -13.6399
lhand -5.73466 -38.2408
lfingers 7.12502
lthumb 20.0874 -9.25924
rfemur -21.5582 11.6903 21.9591
rtibia 23.1813
rfoot -11.839 -27.7578
rtoes -16.1703
lfemur -2.88594 -14.3922 -23.2826
ltibia 33.5391
lfoot -20.7901 1.71247
ltoes -9.65846
1455
root 9.15944 15.487 -5.76081 181.855 -13.7144 -179.075
lowerback 9.04716 2.03955 -1.4188
upperback 4.09729 2.29016 0.096102
thorax -0.886288 0.996621 0.676138
lowerneck -0.479618 11.5661 7.62031
upperneck -6.09392 15.229 -3.58499
head -0.963641 7.4185 -2.36807
rclavicle -7.25813e-014 1.11319e-014
rhumerus -29.3778 -5.0692 -82.6021
rradius 37.0604
rwrist 16.7617
rhand -3.91667 -53.014
rfingers 7.12502
rthumb 21.834 -801.802
lclavicle -7.25813e-014 1.11319e-014
lhumerus -29.4246 15.5183 79.7769
lradius 35.8327
lwrist -13.6123
lhand -5.84528 -38.0816
lfingers 7.12502
lthumb 19.9811 -9.08891
rfemur -21.3302 11.4059 22.2106
rtibia 23.1468
rfoot -12.1192 -27.7648
rtoes -17.6332
lfemur -3.1039 -14.2069 -23.0413
ltibia 34.1005
lfoot -20.0994 1.04138
ltoes -6.31678
1456
root 9.17934 15.4975 -5.81126 181.893 -13.9162 -179.14
lowerback 9.05381 2.02473 -1.32975
upperback 4.0896 2.27891 0.0910038
thorax -0.893927 0.992729 0.621797
lowerneck -0.646479 11.5285 7.45804
upperneck -5.94574 15.1702 -3.38347
head -0.919882 7.39096 -2.2637
rclavicle 2.90723e-015 9.0447e-015
rhumerus -29.35 -4.90801 -82.6302
rradius 37.6911
rwrist 16.1458
rhand -2.00112 -54.4526
rfingers 7.12502
rthumb 23.6723 -803.015
lclavicle 2.90723e-015 9.0447e-015
lhumerus -29.3683 14.9699 80.1187
lradius 36.3517
lwrist -13.0913
lhand -5.84439 -36.7749
lfingers 7.12502
lthumb 19.9819 -7.78226
rfemur -21.1008 11.3088 22.2653
rtibia 23.0772
rfoot -12.4644 -27.828
rtoes -17.885
lfemur -3.34891 -13.957 -22.9622
ltibia 34.7332
lfoot -19.6671 0.571872
ltoes -3.89018
1457
root 9.20067 15.505 -5.86 181.982 -14.0113 -179.205
lowerback 9.01474 2.06596 -1.23527
upperback 4.02049 2.34967 0.0805928
thorax -0.941122 1.03322 0.551182
lowerneck -0.662688 11.4566 7.33912
upperneck -5.84958 15.0795 -3.19481
head -0.915317 7.34734 -2.18438
rclavicle 6.3959e-014 -2.42517e-014
rhumerus -29.5076 -5.12743 -82.474
rradius 37.4731
rwrist 17.0435
rhand -1.83669 -53.7279
rfingers 7.12502
rthumb 23.83 -802.27
lclavicle 6.3959e-014 -2.42517e-014
lhumerus -29.5043 14.5248 80.2212
lradius 36.7052
lwrist -12.6462
lhand -5.62685 -36.8791
lfingers 7.12502
lthumb 20.191 -7.90839
rfemur -20.927 11.2758 22.3122
rtibia 22.9866
rfoot -12.9896 -27.7337
rtoes -17.826
lfemur -3.6664 -13.5051 -22.8684
ltibia 35.3862
lfoot -19.2766 0.45275
ltoes -4.48848
1458
root 9.22332 15.5103 -5.91417 182 -14.0258 -179.208
lowerback 8.92532 2.17643 -1.15249
upperback 4.01029 2.50889 0.127987
thorax -0.904115 1.11466 0.54088
lowerneck -0.529736 11.3705 7.36356
upperneck -5.96908 14.9726 -3.34164
head -0.967631 7.2956 -2.25092
rclavicle -2.52084e-014 3.47873e-015
rhumerus -29.6351 -5.2475 -82.3146
rradius 37.8755
rwrist 16.1954
rhand -1.48559 -54.291
rfingers 7.12502
rthumb 24.1667 -802.789
lclavicle -2.52084e-014 3.47873e-015
lhumerus -29.2785 14.572 80.3637
lradius 36.4956
lwrist -12.8168
lhand -5.86789 -37.5337
lfingers 7.12502
lthumb 19.9593 -8.53876
rfemur -20.677 11.168 22.4871
rtibia 22.9036
rfoot -13.1781 -27.4837
rtoes -18.985
lfemur -3.91079 -12.9715 -22.7214
ltibia 36.0646
lfoot -18.8471 0.524433
ltoes -7.17657
1459
root 9.24513 15.5179 -5.97208 181.99 -14.1184 -179.337
lowerback 8.96999 2.20498 -1.19073
upperback 3.94182 2.54881 0.128274
thorax -1.00181 1.13748 0.55569
lowerneck -0.284133 11.3147 7.56568
upperneck -6.04742 14.9153 -3.65917
head -0.996906 7.27228 -2.40287
rclavicle -1.11816e-014 -9.69075e-015
rhumerus -29.7553 -5.25641 -82.1638
rradius 37.5502
rwrist 16.7334
rhand -2.28353 -53.7911
rfingers 7.12502
rthumb 23.4014 -802.388
lclavicle -1.11816e-014 -9.69075e-015
lhumerus -29.1154 15.2133 80.325
lradius 36.1374
lwrist -13.2552
lhand -6.02288 -38.2718
lfingers 7.12502
lthumb 19.8104 -9.26134
rfemur -20.3115 11.0062 22.5451
rtibia 22.768
rfoot -13.3154 -27.3008
rtoes -20.4179
lfemur -4.11233 -12.6348 -22.7402
ltibia 36.8055
lfoot -18.1645 0.355667
ltoes -5.64582
1460
root 9.26776 15.5246 -6.02551 182.034 -14.2982 -179.405
lowerback 8.97164 2.16848 -1.13619
upperback 3.85422 2.5133 0.130737
thorax -1.09031 1.12482 0.529332
lowerneck -0.0859997 11.2938 7.66764
upperneck -6.0396 14.9071 -3.72289
head -1.01589 7.27094 -2.45269
rclavicle 1.31012e-014 5.09386e-015
rhumerus -29.7982 -5.10408 -82.1693
rradius 37.8929
rwrist 15.4733
rhand -1.91619 -54.7171
rfingers 7.12502
rthumb 23.7538 -803.269
lclavicle 1.31012e-014 5.09386e-015
lhumerus -29.1988 15.3343 80.3713
lradius 36.3647
lwrist -13.1292
lhand -5.90169 -38.0151
lfingers 7.12502
lthumb 19.9269 -9.0167
rfemur -20.0083 10.9336 22.6231
rtibia 22.5739
rfoot -13.6455 -27.2713
rtoes -21.5367
lfemur -4.46175 -12.3573 -22.6524
ltibia 37.613
lfoot -17.4424 0.11654
ltoes -2.7036
1461
root 9.29148 15.5281 -6.07629 182.004 -14.446 -179.251
lowerback 8.91976 2.14297 -0.897157
upperback 3.86819 2.50151 0.2034
thorax -1.04004 1.12066 0.473635
lowerneck 0.0605734 11.2835 7.75538
upperneck -6.13927 14.9042 -3.78598
head -1.06151 7.26731 -2.50128
rclavicle -1.10015e-014 2.03754e-015
rhumerus -29.7018 -5.19519 -82.1004
rradius 37.6641
rwrist 15.5685
rhand -2.20005 -54.3207
rfingers 7.12502
rthumb 23.4815 -802.908
lclavicle -1.10015e-014 2.03754e-015
lhumerus -29.0201 15.1853 80.6066
lradius 36.6083
lwrist -12.8502
lhand -5.96973 -37.3907
lfingers 7.12502
lthumb 19.8615 -8.38552
rfemur -19.7087 10.9259 22.9344
rtibia 22.3644
rfoot -13.8359 -27.3066
rtoes -22.5405
lfemur -4.84298 -11.89 -22.2949
ltibia 38.4814
lfoot -16.9504 -0.181012
ltoes -2.68217
1462
root 9.31387 15.5297 -6.12816 181.842 -14.5675 -179.069
lowerback 9.06137 2.12209 -0.630884
upperback 3.91191 2.4891 0.288096
thorax -1.06463 1.11334 0.409146
lowerneck -0.104115 11.2942 7.77191
upperneck -6.068 14.9037 -3.73816
head -1.0133 7.2648 -2.47357
rclavicle -5.65971e-014 8.8366e-016
rhumerus -29.5007 -5.43267 -81.9531
rradius 36.8475
rwrist 17.0442
rhand -3.15928 -52.6336
rfingers 7.12502
rthumb 22.5611 -801.335
lclavicle -5.65971e-014 8.8366e-016
lhumerus -28.7984 15.2733 80.7339
lradius 36.687
lwrist -12.8465
lhand -6.08815 -37.6094
lfingers 7.12502
lthumb 19.7476 -8.59252
rfemur -19.2527 10.8417 23.3235
rtibia 22.1541
rfoot -14.0563 -27.3023
rtoes -23.2431
lfemur -5.09819 -11.3613 -21.9385
ltibia 39.3882
lfoot -16.3437 -0.474993
ltoes -2.51332
